<svg width="32" height="32" viewBox="0 0 32 32" fill="none" xmlns="http://www.w3.org/2000/svg">
<g id="bi:google" clip-path="url(#clip0_470_4486)">
<path id="Vector" d="M31.09 13.1162C31.2766 14.1901 31.3696 15.2782 31.368 16.3682C31.368 21.2362 29.628 25.3522 26.6 28.1382H26.604C23.956 30.5842 20.316 32.0002 16 32.0002C11.7565 32.0002 7.68687 30.3145 4.68629 27.3139C1.68571 24.3134 0 20.2437 0 16.0002C0 11.7568 1.68571 7.68711 4.68629 4.68652C7.68687 1.68594 11.7565 0.000231799 16 0.000231799C19.9719 -0.0462849 23.8077 1.4459 26.704 4.16423L22.136 8.73223C20.4848 7.15818 18.281 6.29621 16 6.33223C11.826 6.33223 8.28 9.14823 7.016 12.9402C6.34581 14.9272 6.34581 17.0792 7.016 19.0662H7.022C8.292 22.8522 11.832 25.6682 16.006 25.6682C18.162 25.6682 20.014 25.1162 21.45 24.1402H21.444C22.2778 23.5878 22.9911 22.8722 23.5407 22.0366C24.0903 21.201 24.465 20.2626 24.642 19.2782H16V13.1182L31.09 13.1162Z" fill="white"/>
</g>
<defs>
<clipPath id="clip0_470_4486">
<rect width="32" height="32" fill="white"/>
</clipPath>
</defs>
</svg>
