<svg width="24" height="25" viewBox="0 0 24 25" fill="none" xmlns="http://www.w3.org/2000/svg">
<g id="atomo/facebook" clip-path="url(#clip0_854_321)">
<path id="Vector" fill-rule="evenodd" clip-rule="evenodd" d="M0 5.30537C0 2.6544 2.14903 0.505371 4.8 0.505371H19.2C21.8509 0.505371 24 2.6544 24 5.30537V19.7054C24 22.3563 21.8509 24.5054 19.2 24.5054H4.8C2.14903 24.5054 0 22.3563 0 19.7054V5.30537ZM4.8 2.90537C3.47452 2.90537 2.4 3.97989 2.4 5.30537V19.7054C2.4 21.0309 3.47452 22.1054 4.8 22.1054H12V13.7054H10.8C10.1372 13.7054 9.6 13.1681 9.6 12.5054C9.6 11.8426 10.1372 11.3054 10.8 11.3054H12V9.50537C12 7.18577 13.8804 5.30537 16.2 5.30537H16.92C17.5828 5.30537 18.12 5.84264 18.12 6.50537C18.12 7.16811 17.5828 7.70537 16.92 7.70537H16.2C15.2059 7.70537 14.4 8.51126 14.4 9.50537V11.3054H16.92C17.5828 11.3054 18.12 11.8426 18.12 12.5054C18.12 13.1681 17.5828 13.7054 16.92 13.7054H14.4V22.1054H19.2C20.5255 22.1054 21.6 21.0309 21.6 19.7054V5.30537C21.6 3.97989 20.5255 2.90537 19.2 2.90537H4.8Z" fill="#F2F2F2"/>
</g>
<defs>
<clipPath id="clip0_854_321">
<rect width="24" height="24" fill="white" transform="translate(0 0.505371)"/>
</clipPath>
</defs>
</svg>
