<svg width="232" height="111" viewBox="0 0 232 111" fill="none" xmlns="http://www.w3.org/2000/svg">
<g id="freepik--Confetti--inject-206">
<path id="Vector" d="M44.2578 73.66C40.12 73.66 38.1731 69.4971 38.0917 69.3218C38.0209 69.127 38.0259 68.9126 38.1057 68.7213C38.1856 68.5299 38.3345 68.3756 38.5228 68.2889C38.7112 68.2022 38.9252 68.1895 39.1225 68.2533C39.3198 68.3171 39.4859 68.4527 39.5879 68.6332C39.5879 68.6896 41.2342 72.1013 44.383 72.0136C44.59 72.0253 44.785 72.1144 44.9294 72.2631C45.0738 72.4118 45.157 72.6094 45.1625 72.8167C45.1681 73.0239 45.0955 73.2256 44.9592 73.3819C44.8229 73.5381 44.6329 73.6374 44.4268 73.66H44.2578Z" fill="#661010"/>
<path id="Vector_2" d="M98.338 15.8489C97.9779 15.8505 97.6182 15.8275 97.2613 15.7801C97.1544 15.764 97.0517 15.7271 96.9591 15.6714C96.8665 15.6157 96.7858 15.5423 96.7216 15.4554C96.6573 15.3685 96.6109 15.2698 96.5848 15.1649C96.5587 15.0601 96.5535 14.9511 96.5695 14.8442C96.5856 14.7373 96.6225 14.6347 96.6782 14.5421C96.7339 14.4495 96.8073 14.3687 96.8942 14.3045C96.9811 14.2403 97.0798 14.1938 97.1847 14.1677C97.2895 14.1416 97.3985 14.1364 97.5054 14.1525C97.543 14.1525 101.311 14.6846 102.964 11.999C103.02 11.907 103.094 11.8269 103.182 11.7634C103.269 11.6999 103.368 11.6541 103.473 11.6289C103.578 11.6036 103.686 11.5992 103.793 11.616C103.9 11.6328 104.002 11.6704 104.094 11.7267C104.186 11.783 104.266 11.8569 104.33 11.9442C104.393 12.0315 104.439 12.1304 104.464 12.2353C104.49 12.3402 104.494 12.4491 104.477 12.5557C104.46 12.6623 104.423 12.7646 104.366 12.8567C102.72 15.4608 99.8717 15.8489 98.338 15.8489Z" fill="#661010"/>
<path id="Vector_3" opacity="0.6" d="M98.338 15.8489C97.9779 15.8505 97.6182 15.8275 97.2613 15.7801C97.1544 15.764 97.0517 15.7271 96.9591 15.6714C96.8665 15.6157 96.7858 15.5423 96.7216 15.4554C96.6573 15.3685 96.6109 15.2698 96.5848 15.1649C96.5587 15.0601 96.5535 14.9511 96.5695 14.8442C96.5856 14.7373 96.6225 14.6347 96.6782 14.5421C96.7339 14.4495 96.8073 14.3687 96.8942 14.3045C96.9811 14.2403 97.0798 14.1938 97.1847 14.1677C97.2895 14.1416 97.3985 14.1364 97.5054 14.1525C97.543 14.1525 101.311 14.6846 102.964 11.999C103.02 11.907 103.094 11.8269 103.182 11.7634C103.269 11.6999 103.368 11.6541 103.473 11.6289C103.578 11.6036 103.686 11.5992 103.793 11.616C103.9 11.6328 104.002 11.6704 104.094 11.7267C104.186 11.783 104.266 11.8569 104.33 11.9442C104.393 12.0315 104.439 12.1304 104.464 12.2353C104.49 12.3402 104.494 12.4491 104.477 12.5557C104.46 12.6623 104.423 12.7646 104.366 12.8567C102.72 15.4608 99.8717 15.8489 98.338 15.8489Z" fill="white"/>
<path id="Vector_4" d="M5.43959 47.199C3.85136 47.1449 2.30893 46.6532 0.982475 45.778C0.8889 45.718 0.80849 45.6397 0.746128 45.5477C0.683766 45.4557 0.640753 45.352 0.619702 45.2428C0.598652 45.1337 0.600003 45.0214 0.623674 44.9129C0.647344 44.8043 0.692839 44.7016 0.757397 44.6112C0.821954 44.5207 0.904227 44.4443 0.999218 44.3866C1.09421 44.3289 1.19993 44.2911 1.30998 44.2755C1.42002 44.26 1.53208 44.2669 1.63935 44.296C1.74662 44.3251 1.84687 44.3756 1.934 44.4446C1.9653 44.4446 5.12033 46.5793 7.78083 44.8828C7.87195 44.8165 7.97566 44.7696 8.08559 44.7449C8.19551 44.7202 8.30932 44.7182 8.42003 44.7391C8.53075 44.76 8.63602 44.8033 8.72938 44.8664C8.82273 44.9294 8.90221 45.0109 8.96292 45.1058C9.02363 45.2008 9.06428 45.3071 9.08239 45.4183C9.1005 45.5295 9.09568 45.6432 9.06822 45.7525C9.04077 45.8617 8.99126 45.9643 8.92273 46.0537C8.85421 46.1431 8.76812 46.2176 8.66976 46.2725C7.70538 46.8874 6.58328 47.2093 5.43959 47.199Z" fill="#661010"/>
<path id="Vector_5" opacity="0.6" d="M5.43959 47.199C3.85136 47.1449 2.30893 46.6532 0.982475 45.778C0.8889 45.718 0.80849 45.6397 0.746128 45.5477C0.683766 45.4557 0.640753 45.352 0.619702 45.2428C0.598652 45.1337 0.600003 45.0214 0.623674 44.9129C0.647344 44.8043 0.692839 44.7016 0.757397 44.6112C0.821954 44.5207 0.904227 44.4443 0.999218 44.3866C1.09421 44.3289 1.19993 44.2911 1.30998 44.2755C1.42002 44.26 1.53208 44.2669 1.63935 44.296C1.74662 44.3251 1.84687 44.3756 1.934 44.4446C1.9653 44.4446 5.12033 46.5793 7.78083 44.8828C7.87195 44.8165 7.97566 44.7696 8.08559 44.7449C8.19551 44.7202 8.30932 44.7182 8.42003 44.7391C8.53075 44.76 8.63602 44.8033 8.72938 44.8664C8.82273 44.9294 8.90221 45.0109 8.96292 45.1058C9.02363 45.2008 9.06428 45.3071 9.08239 45.4183C9.1005 45.5295 9.09568 45.6432 9.06822 45.7525C9.04077 45.8617 8.99126 45.9643 8.92273 46.0537C8.85421 46.1431 8.76812 46.2176 8.66976 46.2725C7.70538 46.8874 6.58328 47.2093 5.43959 47.199Z" fill="white"/>
<path id="Vector_6" d="M220.176 25.2452C218.591 25.2024 217.047 24.7261 215.713 23.868C215.534 23.7443 215.411 23.5544 215.372 23.3402C215.332 23.1259 215.38 22.9048 215.503 22.7255C215.627 22.5462 215.817 22.4234 216.031 22.3841C216.245 22.3447 216.466 22.3921 216.646 22.5158C216.677 22.5158 219.838 24.6442 222.499 22.954C222.59 22.8961 222.691 22.8566 222.797 22.8378C222.903 22.819 223.012 22.8213 223.117 22.8446C223.222 22.8678 223.322 22.9116 223.41 22.9733C223.499 23.0351 223.574 23.1136 223.632 23.2044C223.69 23.2953 223.729 23.3966 223.748 23.5027C223.767 23.6088 223.765 23.7176 223.741 23.8228C223.718 23.928 223.674 24.0276 223.613 24.1159C223.551 24.2043 223.472 24.2795 223.381 24.3375C222.424 24.9444 221.31 25.2598 220.176 25.2452Z" fill="#661010"/>
<path id="Vector_7" opacity="0.6" d="M220.176 25.2452C218.591 25.2024 217.047 24.7261 215.713 23.868C215.534 23.7443 215.411 23.5544 215.372 23.3402C215.332 23.1259 215.38 22.9048 215.503 22.7255C215.627 22.5462 215.817 22.4234 216.031 22.3841C216.245 22.3447 216.466 22.3921 216.646 22.5158C216.677 22.5158 219.838 24.6442 222.499 22.954C222.59 22.8961 222.691 22.8566 222.797 22.8378C222.903 22.819 223.012 22.8213 223.117 22.8446C223.222 22.8678 223.322 22.9116 223.41 22.9733C223.499 23.0351 223.574 23.1136 223.632 23.2044C223.69 23.2953 223.729 23.3966 223.748 23.5027C223.767 23.6088 223.765 23.7176 223.741 23.8228C223.718 23.928 223.674 24.0276 223.613 24.1159C223.551 24.2043 223.472 24.2795 223.381 24.3375C222.424 24.9444 221.31 25.2598 220.176 25.2452Z" fill="white"/>
<path id="Vector_8" d="M119.503 89.9047C115.666 89.9047 113.575 86.1863 113.481 86.0173C113.376 85.8263 113.35 85.6013 113.411 85.3918C113.471 85.1822 113.612 85.0053 113.803 84.8999C113.994 84.7944 114.219 84.7692 114.429 84.8296C114.638 84.8901 114.815 85.0313 114.921 85.2222C114.921 85.2723 116.799 88.5526 119.929 88.2333C120.138 88.2261 120.342 88.2986 120.5 88.4361C120.658 88.5737 120.758 88.7661 120.779 88.9744C120.801 89.1827 120.742 89.3914 120.616 89.5583C120.489 89.7252 120.304 89.8378 120.098 89.8734C119.91 89.8922 119.703 89.9047 119.503 89.9047Z" fill="#661010"/>
<path id="Vector_9" opacity="0.6" d="M119.503 89.9047C115.666 89.9047 113.575 86.1863 113.481 86.0173C113.376 85.8263 113.35 85.6013 113.411 85.3918C113.471 85.1822 113.612 85.0053 113.803 84.8999C113.994 84.7944 114.219 84.7692 114.429 84.8296C114.638 84.8901 114.815 85.0313 114.921 85.2222C114.921 85.2723 116.799 88.5526 119.929 88.2333C120.138 88.2261 120.342 88.2986 120.5 88.4361C120.658 88.5737 120.758 88.7661 120.779 88.9744C120.801 89.1827 120.742 89.3914 120.616 89.5583C120.489 89.7252 120.304 89.8378 120.098 89.8734C119.91 89.8922 119.703 89.9047 119.503 89.9047Z" fill="white"/>
<path id="Vector_10" d="M14.454 106.625C14.2547 106.624 14.0627 106.549 13.9142 106.416C13.7656 106.283 13.6705 106.101 13.6467 105.903C13.6229 105.705 13.6721 105.505 13.7849 105.341C13.8978 105.177 14.0667 105.059 14.2599 105.01C14.2975 105.01 17.9721 104.04 18.4729 100.922C18.4902 100.816 18.5283 100.714 18.5849 100.622C18.6416 100.53 18.7158 100.451 18.8033 100.388C18.8908 100.325 18.9899 100.279 19.0948 100.255C19.1998 100.23 19.3086 100.226 19.4151 100.243C19.5215 100.26 19.6235 100.298 19.7153 100.355C19.807 100.412 19.8867 100.486 19.9498 100.574C20.0129 100.661 20.0581 100.76 20.0829 100.865C20.1077 100.97 20.1115 101.079 20.0943 101.185C19.4244 105.386 14.8484 106.556 14.6543 106.606C14.5883 106.619 14.5212 106.625 14.454 106.625Z" fill="#661010"/>
<path id="Vector_11" opacity="0.6" d="M14.454 106.625C14.2547 106.624 14.0627 106.549 13.9142 106.416C13.7656 106.283 13.6705 106.101 13.6467 105.903C13.6229 105.705 13.6721 105.505 13.7849 105.341C13.8978 105.177 14.0667 105.059 14.2599 105.01C14.2975 105.01 17.9721 104.04 18.4729 100.922C18.4902 100.816 18.5283 100.714 18.5849 100.622C18.6416 100.53 18.7158 100.451 18.8033 100.388C18.8908 100.325 18.9899 100.279 19.0948 100.255C19.1998 100.23 19.3086 100.226 19.4151 100.243C19.5215 100.26 19.6235 100.298 19.7153 100.355C19.807 100.412 19.8867 100.486 19.9498 100.574C20.0129 100.661 20.0581 100.76 20.0829 100.865C20.1077 100.97 20.1115 101.079 20.0943 101.185C19.4244 105.386 14.8484 106.556 14.6543 106.606C14.5883 106.619 14.5212 106.625 14.454 106.625Z" fill="black"/>
<path id="Vector_12" d="M197.246 49.5653C197.041 49.5723 196.841 49.5024 196.685 49.3693C196.53 49.2362 196.429 49.0496 196.404 48.8463C196.379 48.6429 196.431 48.4375 196.55 48.2705C196.668 48.1035 196.845 47.987 197.046 47.944C197.083 47.944 200.758 46.9799 201.259 43.8624C201.269 43.7496 201.302 43.6401 201.357 43.5407C201.411 43.4413 201.486 43.3541 201.575 43.2847C201.665 43.2152 201.768 43.1649 201.877 43.1369C201.987 43.1089 202.102 43.1038 202.213 43.1218C202.325 43.1399 202.432 43.1808 202.528 43.242C202.623 43.3031 202.705 43.3833 202.768 43.4774C202.831 43.5715 202.874 43.6776 202.894 43.789C202.915 43.9005 202.912 44.015 202.886 44.1253C202.21 48.3258 197.634 49.4964 197.44 49.5402C197.377 49.5578 197.312 49.5662 197.246 49.5653Z" fill="#661010"/>
<path id="Vector_13" opacity="0.6" d="M197.246 49.5653C197.041 49.5723 196.841 49.5024 196.685 49.3693C196.53 49.2362 196.429 49.0496 196.404 48.8463C196.379 48.6429 196.431 48.4375 196.55 48.2705C196.668 48.1035 196.845 47.987 197.046 47.944C197.083 47.944 200.758 46.9799 201.259 43.8624C201.269 43.7496 201.302 43.6401 201.357 43.5407C201.411 43.4413 201.486 43.3541 201.575 43.2847C201.665 43.2152 201.768 43.1649 201.877 43.1369C201.987 43.1089 202.102 43.1038 202.213 43.1218C202.325 43.1399 202.432 43.1808 202.528 43.242C202.623 43.3031 202.705 43.3833 202.768 43.4774C202.831 43.5715 202.874 43.6776 202.894 43.789C202.915 43.9005 202.912 44.015 202.886 44.1253C202.21 48.3258 197.634 49.4964 197.44 49.5402C197.377 49.5578 197.312 49.5662 197.246 49.5653Z" fill="black"/>
<path id="Vector_14" d="M230.881 80.7776H230.743C230.543 80.7401 225.898 79.8887 224.94 75.7696C224.915 75.6635 224.912 75.5535 224.93 75.4461C224.948 75.3386 224.987 75.2358 225.046 75.1437C225.104 75.0516 225.18 74.9721 225.269 74.9097C225.359 74.8474 225.46 74.8035 225.566 74.7806C225.672 74.7565 225.782 74.7537 225.889 74.7721C225.996 74.7906 226.099 74.8301 226.191 74.8882C226.283 74.9464 226.362 75.0221 226.425 75.1111C226.487 75.2 226.532 75.3004 226.555 75.4066C227.269 78.474 231 79.1626 231.038 79.1626C231.235 79.2047 231.41 79.3175 231.529 79.4797C231.649 79.6419 231.706 79.8423 231.688 80.0431C231.67 80.244 231.58 80.4314 231.433 80.5702C231.287 80.7089 231.095 80.7894 230.894 80.7964L230.881 80.7776Z" fill="#661010"/>
<path id="Vector_15" d="M216.207 110.957C214.774 110.98 213.38 110.489 212.276 109.574C212.184 109.508 212.107 109.424 212.049 109.327C211.991 109.23 211.954 109.122 211.939 109.009C211.925 108.897 211.934 108.783 211.966 108.675C211.998 108.566 212.052 108.466 212.125 108.379C212.198 108.292 212.288 108.222 212.389 108.172C212.49 108.121 212.601 108.093 212.714 108.087C212.827 108.082 212.94 108.1 213.045 108.14C213.151 108.181 213.247 108.242 213.328 108.322C215.751 110.337 219.15 108.647 219.187 108.628C219.381 108.529 219.607 108.51 219.815 108.577C220.023 108.644 220.196 108.791 220.295 108.985C220.395 109.179 220.413 109.405 220.346 109.613C220.279 109.821 220.133 109.994 219.938 110.093C218.772 110.648 217.499 110.943 216.207 110.957Z" fill="#661010"/>
<path id="Vector_16" d="M177.84 8.21799C177.697 8.21908 177.557 8.18236 177.433 8.11157C177.264 8.01767 173.176 5.65139 173.677 1.42589C173.702 1.20923 173.812 1.01133 173.983 0.875733C174.154 0.740139 174.371 0.677957 174.588 0.702861C174.805 0.727765 175.003 0.837716 175.138 1.00853C175.274 1.17934 175.336 1.39702 175.311 1.61369C174.954 4.74369 178.234 6.66551 178.266 6.68429C178.425 6.77436 178.55 6.91517 178.62 7.0843C178.69 7.25343 178.701 7.44114 178.652 7.61755C178.603 7.79395 178.497 7.9489 178.35 8.05771C178.202 8.16652 178.023 8.22295 177.84 8.21799Z" fill="#661010"/>
<path id="Vector_17" d="M14.3225 11.5546C14.2148 11.5591 14.1073 11.5424 14.0061 11.5053C13.9048 11.4683 13.8119 11.4117 13.7325 11.3387C13.6532 11.2658 13.589 11.1779 13.5436 11.0801C13.4982 10.9824 13.4725 10.8766 13.468 10.7689C13.4635 10.6612 13.4802 10.5537 13.5173 10.4525C13.5543 10.3513 13.6109 10.2583 13.6838 10.179C13.7568 10.0996 13.8447 10.0354 13.9424 9.99005C14.0402 9.94466 14.1459 9.91897 14.2536 9.91445C17.3836 9.63901 18.6356 6.04577 18.6356 6.00821C18.7083 5.80844 18.8558 5.64472 19.0469 5.55156C19.238 5.4584 19.4578 5.44309 19.6599 5.50885C19.8621 5.57462 20.0308 5.71631 20.1305 5.90407C20.2302 6.09182 20.2531 6.31096 20.1944 6.51527C20.138 6.70933 18.6356 11.1852 14.3976 11.5233L14.3225 11.5546Z" fill="#661010"/>
</g>
</svg>
