<svg width="92" height="190" viewBox="0 0 92 190" fill="none" xmlns="http://www.w3.org/2000/svg">
<g id="freepik--character-2--inject-206">
<path id="Vector" d="M45.7552 184.699L40.9037 184.705L39.5953 173.475L44.4468 173.469L45.7552 184.699Z" fill="#FFC3BD"/>
<path id="Vector_2" d="M87.5156 163.853L83.841 167.027L75.5215 159.371L79.1898 156.197L87.5156 163.853Z" fill="#FFC3BD"/>
<path id="Vector_3" d="M83.1274 166.902L87.597 163.033C87.67 162.973 87.7619 162.939 87.8568 162.939C87.9517 162.939 88.0436 162.973 88.1166 163.033L91.522 165.75C91.605 165.82 91.6717 165.907 91.7175 166.006C91.7632 166.104 91.7869 166.211 91.7869 166.32C91.7869 166.428 91.7632 166.535 91.7175 166.634C91.6717 166.732 91.605 166.819 91.522 166.889C90.0634 168.11 88.9429 168.93 87.14 170.495C86.0257 171.459 82.758 174.489 81.2181 175.822C79.6781 177.156 78.2195 175.747 78.7141 175.059C81.0303 171.979 82.4701 169.249 82.6954 167.628C82.7509 167.343 82.9036 167.087 83.1274 166.902Z" fill="#263238"/>
<path id="Vector_4" d="M40.935 184.142H46.2372C46.3334 184.142 46.4267 184.175 46.5017 184.236C46.5767 184.296 46.6291 184.38 46.6504 184.474L47.6144 188.787C47.638 188.891 47.6378 188.999 47.6138 189.103C47.5898 189.206 47.5426 189.304 47.4758 189.387C47.4089 189.47 47.3242 189.537 47.2279 189.582C47.1316 189.628 47.0262 189.651 46.9195 189.651C45.004 189.619 42.2433 189.513 39.8395 189.513C37.035 189.513 35.3886 189.588 32.0959 189.594C30.1052 189.594 29.548 187.585 30.3806 187.403C34.1742 186.564 36.4904 186.558 39.7706 184.53C40.1151 184.295 40.5183 184.16 40.935 184.142Z" fill="#263238"/>
<path id="Vector_5" d="M25.166 45.2513C24.1894 44.8757 23.3506 44.5314 22.4742 44.1307C21.5978 43.7301 20.7527 43.3357 19.9013 42.9163C18.2028 42.0816 16.5335 41.151 14.8933 40.1243C13.2427 39.1128 11.6559 38.0006 10.142 36.794C9.76014 36.481 9.37203 36.168 8.99643 35.8488L7.88215 34.8284C7.51281 34.4903 7.16225 34.1022 6.80543 33.7391C6.62389 33.5388 6.46738 33.3948 6.2608 33.157C6.05422 32.9191 5.85389 32.6875 5.67235 32.4496C4.98787 31.5446 4.40629 30.5661 3.93834 29.5324C3.50315 28.5885 3.13295 27.6159 2.83033 26.6215C2.25496 24.7438 1.83619 22.8217 1.57833 20.8748C1.08445 17.1269 0.990017 13.3371 1.29662 9.56927H4.93994C5.19034 11.2657 5.45326 13.0498 5.79756 14.7651C6.14186 16.4803 6.50494 18.1955 6.9494 19.8482C7.36979 21.4625 7.90107 23.0459 8.53944 24.587C9.06931 25.9497 9.81548 27.218 10.7492 28.343L11.056 28.656C11.1499 28.7562 11.3377 28.9064 11.4754 29.0316C11.7759 29.2883 12.0513 29.5575 12.3706 29.8016C12.9966 30.3024 13.6226 30.7969 14.3237 31.2727C15.6758 32.2117 17.1031 33.1069 18.593 33.9457C20.0829 34.7846 21.6041 35.5796 23.1503 36.3308C23.9265 36.7126 24.709 37.0882 25.4915 37.4388C26.274 37.7894 27.0941 38.1587 27.7952 38.4592L25.166 45.2513Z" fill="#FFC3BD"/>
<path id="Vector_6" d="M25.9423 49.3829C23.1797 47.6655 20.5701 45.7136 18.1423 43.5485L20.0767 33.664C23.6732 34.6871 27.3298 35.4857 31.0254 36.0553C37.1289 36.8441 30.293 51.9745 25.9423 49.3829Z" fill="#263238"/>
<path id="Vector_7" d="M5.06514 10.4206L5.40944 4.242L0.276239 5.88838C0.276239 5.88838 -0.919428 10.3142 2.41089 11.4786L5.06514 10.4206Z" fill="#FFC3BD"/>
<path id="Vector_8" d="M4.78971 0.917938L0.551677 2.68326L0.276245 5.88837L5.40944 4.242L4.78971 0.917938Z" fill="#FFC3BD"/>
<path id="Vector_9" opacity="0.2" d="M39.6016 173.475L40.2714 179.265L45.1229 179.259L44.4531 173.469L39.6016 173.475Z" fill="black"/>
<path id="Vector_10" opacity="0.2" d="M79.1961 156.197L75.5215 159.371L79.8158 163.315L83.4842 160.141L79.1961 156.197Z" fill="black"/>
<path id="Vector_11" d="M49.6802 35.855C49.691 35.5114 49.6338 35.1691 49.5117 34.8478C49.3895 34.5265 49.205 34.2325 48.9688 33.9829C48.7325 33.7332 48.4491 33.5328 48.135 33.3932C47.8209 33.2536 47.4823 33.1776 47.1386 33.1695C33.2915 32.9128 24.2834 36.794 23.6636 37.0444C23.4325 37.1377 23.229 37.2884 23.0723 37.4823C22.9157 37.6762 22.8111 37.9068 22.7685 38.1524C22.1926 41.6205 20.5587 56.1562 28.5652 78.905L54.2312 75.2304C53.8869 71.4431 49.1043 54.0653 49.6802 35.855Z" fill="#263238"/>
<path id="Vector_12" d="M28.922 35.2979C27.4008 37.3324 26.7122 42.0211 31.7515 45.4516C37.9489 40.8254 41.1415 35.8488 42.0867 33.2571C37.6397 33.4802 33.2278 34.1641 28.922 35.2979Z" fill="white"/>
<path id="Vector_13" d="M27.7702 37.2009C27.4381 37.2009 27.1197 37.069 26.8849 36.8342C26.6501 36.5994 26.5182 36.2809 26.5182 35.9489C26.5182 34.916 27.4134 34.0271 28.1708 33.4449C30.7124 31.5669 35.6828 30.1334 41.9428 31.9425C42.2505 32.044 42.5068 32.2608 42.6579 32.5474C42.809 32.8339 42.8432 33.1679 42.7533 33.4791C42.6633 33.7903 42.4562 34.0546 42.1755 34.2163C41.8948 34.378 41.5623 34.4246 41.248 34.3463C33.9864 32.2492 29.5105 35.229 29.0285 36.0866C28.9943 36.3953 28.8466 36.6803 28.6141 36.8863C28.3816 37.0922 28.0808 37.2043 27.7702 37.2009Z" fill="#661010"/>
<path id="Vector_14" d="M38.1742 21.3568C37.9864 24.9689 38.2181 31.5043 41.01 33.495C39.3699 35.6672 37.1852 38.215 33.0348 38.96C30.5308 39.4044 29.6732 38.4779 29.5667 37.3073C29.5316 36.7426 29.6562 36.1795 29.9263 35.6823C30.1965 35.1852 30.6012 34.7743 31.0942 34.4966C33.7922 32.9316 33.2539 30.4151 32.2836 28.0363L38.1742 21.3568Z" fill="#FFC3BD"/>
<path id="Vector_15" d="M27.3883 65.9218C27.2472 65.9212 27.1074 65.8958 26.9751 65.8467C26.6623 65.7361 26.4061 65.5059 26.2629 65.2066C26.1197 64.9073 26.1012 64.5633 26.2114 64.2504C26.3853 63.8124 26.4661 63.343 26.4489 62.872C26.4316 62.4011 26.3167 61.9389 26.1112 61.5148L25.9798 61.1579C25.7661 60.7375 25.4824 60.3564 25.1409 60.0311C24.4085 59.4436 23.9017 58.6209 23.7066 57.7025C23.5115 56.784 23.6401 55.8263 24.0705 54.9918C24.2245 54.6346 24.3156 54.2533 24.3397 53.865C24.2202 53.4191 24.0277 52.9961 23.77 52.613C23.2533 51.8743 22.9481 51.0085 22.8873 50.109C22.9581 49.1684 23.2994 48.2684 23.8702 47.5174C24.0854 47.2326 24.2544 46.9158 24.371 46.5784C24.3755 46.2301 24.3072 45.8847 24.1706 45.5643C23.8696 44.8528 23.7953 44.0659 23.9578 43.3107C24.2118 42.4591 24.7345 41.7124 25.4477 41.1823C25.6491 41.0299 25.8246 40.846 25.9673 40.6377C26.0567 40.3353 26.0567 40.0135 25.9673 39.7112C25.7768 38.9861 25.878 38.2154 26.249 37.564C26.6872 36.8754 26.6433 36.7001 26.6058 36.5561C26.5425 36.3366 26.5151 36.1083 26.5244 35.8801C26.5244 35.548 26.6563 35.2296 26.8911 34.9948C27.1259 34.76 27.4444 34.6281 27.7764 34.6281C28.1085 34.6281 28.4269 34.76 28.6617 34.9948C28.8965 35.2296 29.0284 35.548 29.0284 35.8801V35.9176C29.2037 36.625 29.2538 37.4701 28.4024 38.8536C28.4127 39.0006 28.4315 39.1469 28.4587 39.2918C28.6475 39.9803 28.6195 40.7102 28.3787 41.3822C28.1379 42.0543 27.6959 42.6358 27.1128 43.0478C26.7122 43.3983 26.4868 43.6112 26.3992 43.9179C26.3864 44.2071 26.4444 44.4951 26.5682 44.7567C26.8342 45.4262 26.9393 46.1488 26.875 46.8664C26.7364 47.5855 26.4367 48.2639 25.9985 48.8508C25.7081 49.2169 25.5067 49.6455 25.4101 50.1028C25.5112 50.541 25.6962 50.9555 25.9547 51.3235C26.4048 51.996 26.7097 52.755 26.8499 53.552C26.8847 54.3056 26.7544 55.0576 26.468 55.7556C26.2643 56.2007 26.1678 56.6874 26.1864 57.1766C26.3837 57.6107 26.6669 58.0004 27.0189 58.3222C27.5983 58.8885 28.0581 59.5655 28.3711 60.3128L28.4838 60.6384C29.0999 62.0378 29.1382 63.6241 28.5902 65.0517C28.5088 65.3059 28.3483 65.5274 28.132 65.684C27.9158 65.8405 27.6552 65.9238 27.3883 65.9218Z" fill="#661010"/>
<path id="Vector_16" d="M49.4485 35.6484C50.1309 36.2744 50.7005 36.8002 51.2764 37.4012C51.8524 38.0022 52.4158 38.5844 52.9729 39.1853C54.0872 40.3872 55.1389 41.6518 56.153 42.9413C58.2658 45.6141 60.0345 48.5416 61.4176 51.6552C61.7663 52.4881 62.0714 53.3385 62.3316 54.203C62.4631 54.6412 62.5757 55.0982 62.6822 55.5615L62.7197 55.7305L62.7761 56.0247C62.8136 56.2188 62.8324 56.4253 62.8512 56.6507C62.8812 57.0682 62.8687 57.4877 62.8136 57.9027C62.7211 58.6509 62.4942 59.3761 62.1438 60.0436C61.851 60.5994 61.496 61.1202 61.0859 61.5961C60.4075 62.371 59.626 63.0492 58.7634 63.6118C57.2914 64.5753 55.7061 65.3532 54.0434 65.928C53.2546 66.216 52.4596 66.4601 51.6583 66.6667C50.857 66.8733 50.0808 67.0673 49.2106 67.2113L48.0838 63.7495C48.7098 63.399 49.3797 63.0296 50.0119 62.654C50.6442 62.2784 51.2639 61.8841 51.8899 61.4897C53.0537 60.7542 54.1494 59.9162 55.1639 58.9857C55.553 58.6107 55.8955 58.1904 56.1843 57.7337C56.4034 57.3769 56.3846 57.139 56.322 57.2141C56.3174 57.2347 56.3174 57.2561 56.322 57.2767L56.2844 57.164C56.1905 56.8761 56.1029 56.5819 55.9777 56.2814C55.7457 55.6705 55.4803 55.0728 55.1827 54.491C54.5541 53.2546 53.8387 52.0643 53.0418 50.9291C52.2467 49.7522 51.3703 48.6003 50.4439 47.4735C49.5174 46.3467 48.5659 45.2387 47.558 44.1432C47.0635 43.5986 46.5564 43.0665 46.0431 42.5407C45.5298 42.0148 44.9914 41.4639 44.5344 41.0257L49.4485 35.6484Z" fill="#FFC3BD"/>
<path id="Vector_17" d="M47.8335 33.2759C50.663 33.6953 55.1013 40.7879 55.1013 40.7879L47.8961 50.4471C47.8961 50.4471 44.0524 46.785 42.9319 43.5611C40.816 37.3762 42.2746 32.4621 47.8335 33.2759Z" fill="#263238"/>
<path id="Vector_18" d="M44.0586 57.5897C43.8412 57.5873 43.6282 57.5283 43.4405 57.4185C43.2528 57.3088 43.0969 57.152 42.9882 56.9637C42.5578 56.1219 42.3713 55.1765 42.4498 54.2344C42.4832 53.8454 42.4493 53.4537 42.3497 53.0762C42.0989 52.6875 41.7834 52.3445 41.4169 52.0621C40.6962 51.5258 40.1355 50.8029 39.7956 49.9713C39.5633 49.0572 39.6047 48.0951 39.9145 47.2044C40.0284 46.8651 40.0896 46.5105 40.0961 46.1527C39.9386 45.7232 39.71 45.3233 39.42 44.9695C38.775 44.3067 38.3973 43.4291 38.3592 42.505C38.321 41.581 38.6252 40.6753 39.2134 39.9615C39.3833 39.7066 39.52 39.431 39.6203 39.1415C39.5877 38.6664 39.4733 38.2005 39.2823 37.7643C38.9246 37.026 38.8022 36.1956 38.9317 35.3855C39.1654 34.2332 39.7465 33.1801 40.5969 32.3682L40.6782 32.2868C40.9119 32.0649 41.2221 31.9416 41.5444 31.9426C41.8666 31.9436 42.1761 32.0688 42.4083 32.2922C42.6406 32.5156 42.7778 32.82 42.7913 33.1419C42.8049 33.4639 42.6938 33.7787 42.4811 34.0208L42.3371 34.1648C41.8255 34.6582 41.4817 35.2997 41.3543 35.999C41.4221 36.3131 41.5164 36.6209 41.636 36.9192C41.9644 37.6775 42.1287 38.4967 42.118 39.323C42.0207 40.0085 41.7658 40.6621 41.3731 41.2323C41.1019 41.6019 40.9237 42.0313 40.8535 42.4843C41.001 42.8717 41.2126 43.2314 41.4795 43.5485C41.9854 44.1768 42.3543 44.9039 42.5625 45.6832C42.6582 46.4094 42.5876 47.1479 42.3559 47.8429C42.1973 48.2835 42.1395 48.7542 42.1869 49.2201C42.4247 49.6039 42.7326 49.9394 43.0946 50.2092C43.7312 50.7097 44.2575 51.3363 44.6408 52.0496C44.9116 52.753 45.0228 53.5078 44.9663 54.2594C44.9199 54.7468 44.9819 55.2385 45.1479 55.6992C45.3177 55.984 45.3676 56.3246 45.2866 56.6461C45.2057 56.9677 45.0004 57.244 44.716 57.4144C44.5172 57.5324 44.2897 57.5931 44.0586 57.5897Z" fill="#661010"/>
<path id="Vector_19" opacity="0.2" d="M35.7705 24.08L32.2899 28.03C32.5524 28.6368 32.7618 29.2651 32.9159 29.908C34.3808 29.4761 36.2024 27.5417 36.1398 25.9517C36.1301 25.3107 36.005 24.6766 35.7705 24.08Z" fill="black"/>
<path id="Vector_20" d="M28.4525 11.0842C26.9063 13.776 27.8953 17.6071 27.8953 17.6071C28.3101 17.8768 28.7894 18.0306 29.2837 18.0526C29.7779 18.0746 30.269 17.964 30.7061 17.7323L30.2679 10.5959L28.4525 11.0842Z" fill="#263238"/>
<path id="Vector_21" d="M40.6407 17.9201C39.4576 22.5901 39.0006 25.382 36.1585 27.3539C31.8829 30.3212 26.4618 27.0535 26.2302 22.1268C26.0173 17.6885 27.9892 10.8025 32.9722 9.80089C34.0683 9.57382 35.2043 9.63099 36.272 9.96695C37.3398 10.3029 38.3038 10.9065 39.0724 11.7203C39.8411 12.5341 40.3887 13.531 40.6632 14.6162C40.9377 15.7014 40.9299 16.8387 40.6407 17.9201Z" fill="#FFC3BD"/>
<path id="Vector_22" d="M27.0065 23.3538H26.8375L16.2267 21.1064C15.6498 20.9844 15.145 20.6382 14.8233 20.1439C14.5016 19.6497 14.3895 19.0479 14.5115 18.471C14.6335 17.894 14.9797 17.3892 15.474 17.0675C15.9682 16.7459 16.57 16.6337 17.147 16.7557C17.252 16.778 17.3515 16.8208 17.4399 16.8818C17.5282 16.9427 17.6037 17.0204 17.6619 17.1106C17.7201 17.2008 17.7598 17.3016 17.7789 17.4072C17.798 17.5129 17.7959 17.6212 17.773 17.726C17.7265 17.9372 17.5984 18.1215 17.4167 18.2388C17.235 18.356 17.0143 18.3967 16.8027 18.352C16.728 18.3339 16.6504 18.3318 16.5749 18.3459C16.4993 18.3599 16.4276 18.3897 16.3645 18.4334C16.3009 18.4745 16.2461 18.5277 16.2031 18.59C16.1602 18.6523 16.1299 18.7225 16.1141 18.7965C16.0865 18.9476 16.1155 19.1036 16.1955 19.2347C16.2821 19.3595 16.4111 19.4485 16.5585 19.4851L27.1692 21.7324C27.3665 21.7754 27.5409 21.8895 27.6592 22.0531C27.7775 22.2166 27.8314 22.418 27.8105 22.6188C27.7895 22.8195 27.6953 23.0055 27.5458 23.1411C27.3963 23.2767 27.202 23.3525 27.0002 23.3538H27.0065Z" fill="#661010"/>
<path id="Vector_23" d="M26.9626 23.5416L25.6793 23.2662L26.0862 21.3882L27.3382 21.6573C27.5913 21.7114 27.8126 21.8638 27.9535 22.0809C28.0944 22.2981 28.1433 22.5623 28.0894 22.8154C28.0271 23.0558 27.8766 23.264 27.6678 23.3985C27.459 23.5331 27.2073 23.5841 26.9626 23.5416Z" fill="white"/>
<path id="Vector_24" d="M37.7423 15.3535C37.7423 13.5757 36.4027 12.2798 31.9331 12.6241C28.2835 12.8996 26.5056 11.1969 27.5511 8.82432C30.5058 10.3643 30.0175 8.34856 35.6515 8.10442C41.2855 7.86028 42.9194 9.98242 43.5141 13.2814C46.9633 18.3959 41.0101 20.518 41.0101 20.518L38.6813 22.5525C38.1989 22.6622 37.6958 22.6404 37.2246 22.4896C36.7534 22.3388 36.3312 22.0643 36.0021 21.6949C36.0021 21.6949 35.5451 17.5445 37.7423 15.3535Z" fill="#263238"/>
<path id="Vector_25" d="M31.7578 7.22177L31.6138 7.29689C31.4799 7.36822 31.3671 7.47358 31.2868 7.60237C31.2065 7.73115 31.1616 7.87881 31.1565 8.03049C31.1514 8.18216 31.1864 8.3325 31.2579 8.46636C31.3294 8.60023 31.4349 8.71289 31.5637 8.79303L44.6346 16.8747C44.7576 16.9501 44.8974 16.9935 45.0414 17.0009C45.1854 17.0084 45.329 16.9797 45.459 16.9175C45.5891 16.8553 45.7015 16.7615 45.7861 16.6446C45.8706 16.5278 45.9245 16.3917 45.943 16.2487C46.0041 15.845 45.9453 15.4322 45.7739 15.0617C45.6025 14.6911 45.3261 14.379 44.9789 14.1641L33.8361 7.27811C33.5247 7.08826 33.169 6.98319 32.8045 6.9733C32.4399 6.96342 32.0791 7.04908 31.7578 7.22177Z" fill="#661010"/>
<path id="Vector_26" d="M34.1116 8.08563L37.4544 3.19031C37.55 3.05079 37.6952 2.95301 37.8604 2.91694C38.0256 2.88088 38.1983 2.90924 38.3433 2.99625L47.5706 8.52383C47.6513 8.57103 47.7211 8.63493 47.7752 8.71126C47.8293 8.78759 47.8665 8.87459 47.8843 8.96644C47.902 9.05829 47.9 9.15288 47.8783 9.24388C47.8566 9.33488 47.8157 9.4202 47.7584 9.49413L43.7582 14.7776L34.1116 8.08563Z" fill="#661010"/>
<path id="Vector_27" d="M34.1116 8.08565L35.445 5.70059L45.7489 12.5115L43.7582 14.7776L34.1116 8.08565Z" fill="#661010"/>
<path id="Vector_28" opacity="0.6" d="M34.1116 8.08565L35.445 5.70059L45.7489 12.5115L43.7582 14.7776L34.1116 8.08565Z" fill="white"/>
<path id="Vector_29" d="M41.2354 23.648C40.3201 24.2728 39.1969 24.5154 38.1054 24.3241C36.6844 24.0486 36.6843 22.6088 37.6672 21.5885C38.5498 20.6682 40.359 19.7105 41.4983 20.5055C42.6376 21.3005 42.3684 22.8655 41.2354 23.648Z" fill="#FFC3BD"/>
<path id="Vector_30" d="M38.4497 178.151H46.6628C46.6628 178.151 45.3733 148.942 43.6017 133.93C43.0633 129.361 43.6455 123.101 43.7018 116.108C43.777 107.3 44.1839 97.7038 44.5845 90.173C45.0102 82.2416 45.367 76.5262 45.367 76.5262L28.5652 78.9238C28.5652 78.9238 26.9 120.509 29.5104 135.082C32.2273 150.219 38.4497 178.151 38.4497 178.151Z" fill="#661010"/>
<path id="Vector_31" opacity="0.2" d="M43.7018 116.089C43.7769 107.282 44.1838 97.685 44.5845 90.1542L42.0805 86.8051C38.988 92.5956 41.1352 108.014 43.7018 116.089Z" fill="black"/>
<path id="Vector_32" d="M36.5718 77.7595C36.5718 77.7595 47.0072 118.969 51.9651 132.297C57.3925 146.882 77.3807 163.935 77.3807 163.935L82.4325 158.376C82.4325 158.376 71.8594 141.893 64.0657 126.037C60.341 105.447 54.2563 75.2304 54.2563 75.2304L36.5718 77.7595Z" fill="#661010"/>
<path id="Vector_33" d="M76.7046 164.773L84.6235 157.931L82.5765 155.571L73.5934 163.064L76.7046 164.773Z" fill="#263238"/>
<path id="Vector_34" d="M37.4169 178.339L47.2075 178.326L47.2012 175.165L36.265 175.015L37.4169 178.339Z" fill="#263238"/>
<path id="Vector_35" d="M33.4293 17.0062C33.1163 16.9123 32.7469 17.2127 32.5967 17.6822L33.711 18.039C33.8612 17.5695 33.736 17.1063 33.4293 17.0062Z" fill="#263238"/>
<path id="Vector_36" d="M28.5464 16.0859C28.2272 16.0859 27.9204 16.449 27.9204 16.9435L29.0848 17.0187C29.1036 16.5241 28.8719 16.136 28.5464 16.0859Z" fill="#263238"/>
<path id="Vector_37" d="M30.2303 17.5132C29.5484 18.6016 28.7207 19.5916 27.7701 20.4554C27.9987 20.6924 28.2761 20.8768 28.5831 20.9957C28.8901 21.1147 29.2194 21.1653 29.548 21.144L30.2303 17.5132Z" fill="#ED847E"/>
<path id="Vector_38" d="M35.0192 16.5053C35.0583 16.5146 35.0991 16.5146 35.1382 16.5053C35.196 16.4866 35.2441 16.446 35.2722 16.3921C35.3003 16.3382 35.3062 16.2755 35.2884 16.2174C35.191 15.866 35.0105 15.5432 34.7621 15.2762C34.5137 15.0093 34.2047 14.806 33.8612 14.6837C33.8324 14.6742 33.802 14.6707 33.7718 14.6736C33.7417 14.6764 33.7125 14.6855 33.686 14.7002C33.6595 14.7149 33.6364 14.7349 33.6181 14.759C33.5997 14.7831 33.5866 14.8107 33.5794 14.8402C33.5709 14.8689 33.5681 14.8991 33.5714 14.929C33.5747 14.9588 33.5839 14.9877 33.5984 15.014C33.613 15.0402 33.6327 15.0633 33.6563 15.0818C33.6799 15.1003 33.707 15.114 33.7359 15.1219C34.0081 15.2266 34.2512 15.3948 34.445 15.6126C34.6389 15.8304 34.7778 16.0914 34.8502 16.3739C34.8666 16.4072 34.8903 16.4363 34.9196 16.4591C34.9488 16.4819 34.9829 16.4977 35.0192 16.5053Z" fill="#263238"/>
<path id="Vector_39" d="M27.1003 15.4286C27.1378 15.435 27.1762 15.432 27.2122 15.42C27.2483 15.408 27.2808 15.3873 27.3069 15.3598C27.4956 15.1424 27.7326 14.9725 27.9991 14.8638C28.2655 14.755 28.5538 14.7105 28.8406 14.7338C28.9012 14.7427 28.9629 14.7274 29.0121 14.691C29.0614 14.6546 29.0943 14.6002 29.1036 14.5397C29.1126 14.4808 29.0979 14.4207 29.0627 14.3726C29.0275 14.3245 28.9746 14.2923 28.9157 14.283C28.5528 14.2472 28.1866 14.299 27.8478 14.434C27.509 14.5691 27.2076 14.7835 26.9689 15.0593C26.9469 15.0803 26.9294 15.1056 26.9175 15.1336C26.9056 15.1615 26.8994 15.1916 26.8994 15.222C26.8994 15.2525 26.9056 15.2826 26.9175 15.3105C26.9294 15.3385 26.9469 15.3638 26.9689 15.3848C27.0079 15.4112 27.0533 15.4263 27.1003 15.4286Z" fill="#263238"/>
<path id="Vector_40" d="M82.4387 168.617C82.7573 168.326 83.0428 168.001 83.2901 167.647C83.3024 167.628 83.3091 167.606 83.3091 167.584C83.3091 167.562 83.3024 167.54 83.2901 167.522C83.2806 167.501 83.2642 167.484 83.2437 167.473C83.2232 167.463 83.1998 167.46 83.1774 167.465C82.9771 167.465 81.193 167.759 80.9613 168.329C80.9357 168.392 80.9269 168.46 80.9357 168.527C80.9444 168.594 80.9706 168.657 81.0114 168.711C81.0707 168.807 81.1534 168.887 81.252 168.943C81.3505 168.999 81.4616 169.029 81.5748 169.03C81.9019 168.997 82.2072 168.851 82.4387 168.617ZM82.9395 167.741C82.4199 168.41 81.9191 168.799 81.5811 168.799C81.5043 168.797 81.4294 168.775 81.3636 168.735C81.2978 168.696 81.2433 168.64 81.2055 168.573C81.1909 168.551 81.1832 168.525 81.1832 168.498C81.1832 168.471 81.1909 168.445 81.2055 168.423C81.2931 168.129 82.2259 167.866 82.9395 167.741Z" fill="#661010"/>
<path id="Vector_41" d="M83.2713 167.672C83.2879 167.656 83.3008 167.637 83.3089 167.616C83.3182 167.597 83.3231 167.577 83.3231 167.556C83.3231 167.535 83.3182 167.515 83.3089 167.497C83.265 167.453 82.3073 166.432 81.5936 166.439C81.5063 166.439 81.4199 166.457 81.3401 166.493C81.2604 166.528 81.1889 166.58 81.1304 166.645C81.0641 166.703 81.0193 166.781 81.0034 166.868C80.9875 166.954 81.0013 167.043 81.0427 167.121C81.2994 167.609 82.6954 167.81 83.2463 167.697L83.2713 167.672ZM81.3057 166.77C81.3786 166.708 81.4723 166.674 81.5686 166.677C82.0256 166.677 82.6516 167.209 82.952 167.49C82.326 167.522 81.3683 167.296 81.2118 167.008C81.2118 166.977 81.1679 166.914 81.2681 166.808L81.3057 166.77Z" fill="#661010"/>
<path id="Vector_42" d="M40.4592 184.818C40.4793 184.811 40.497 184.799 40.5103 184.782C40.5236 184.765 40.5319 184.745 40.5343 184.724C40.5396 184.701 40.5369 184.676 40.5267 184.655C40.5165 184.633 40.4993 184.616 40.478 184.605C40.2526 184.492 38.3057 183.503 37.7173 183.835C37.6609 183.865 37.6133 183.909 37.5792 183.963C37.5451 184.016 37.5258 184.078 37.5232 184.142C37.5103 184.246 37.5236 184.351 37.5619 184.448C37.6001 184.546 37.6622 184.632 37.7423 184.699C38.2744 185.169 39.6642 184.974 40.4467 184.818H40.4592ZM37.8675 184.017C38.2369 183.892 39.2948 184.292 40.0648 184.643C38.9943 184.824 38.1868 184.78 37.8926 184.511C37.8402 184.466 37.8001 184.409 37.776 184.344C37.7519 184.28 37.7446 184.21 37.7548 184.142C37.7548 184.117 37.7619 184.093 37.7752 184.072C37.7885 184.051 37.8075 184.034 37.83 184.023L37.8675 184.017Z" fill="#661010"/>
<path id="Vector_43" d="M40.4591 184.818H40.4904C40.5065 184.805 40.5194 184.789 40.528 184.771C40.5367 184.752 40.541 184.732 40.5405 184.712C40.5405 184.661 40.3965 183.353 39.7831 182.834C39.6973 182.761 39.5976 182.706 39.49 182.672C39.3824 182.639 39.2691 182.628 39.1571 182.64C38.8378 182.64 38.7502 182.834 38.7314 182.959C38.6438 183.51 39.8018 184.555 40.3903 184.837C40.4146 184.837 40.4385 184.831 40.4591 184.818ZM39.0506 182.884H39.1696C39.253 182.874 39.3376 182.883 39.4175 182.909C39.4974 182.934 39.5708 182.977 39.6328 183.034C39.9902 183.454 40.2089 183.974 40.2588 184.524C39.6641 184.167 38.8691 183.347 38.9254 183.015C38.938 182.971 38.938 182.915 39.0506 182.884Z" fill="#661010"/>
<path id="Vector_44" d="M48.6723 63.424L44.0023 64.9014L47.6269 68.5072C47.6269 68.5072 51.8586 66.673 50.5315 64.8075L48.6723 63.424Z" fill="#FFC3BD"/>
<path id="Vector_45" d="M42.0806 69.0205L45.4046 71.0362L47.6269 68.5072L44.0024 64.9014L42.0806 69.0205Z" fill="#FFC3BD"/>
</g>
</svg>
