<svg width="84" height="185" viewBox="0 0 84 185" fill="none" xmlns="http://www.w3.org/2000/svg">
<g id="freepik--character-1--inject-206">
<path id="Vector" d="M34.4013 23.3254C32.179 24.3646 30.2196 29.3601 30.8581 36.534C31.4966 43.708 16.6354 38.6749 14.6134 46.7128C10.9639 61.261 35.4342 70.0062 45.8633 61.261C52.3174 55.8524 58.3834 38.0239 57.4944 28.2959C56.5429 17.8354 40.317 10.8179 34.4013 23.3254Z" fill="#263238"/>
<path id="Vector_2" d="M57.8826 41.6797C58.158 41.5984 58.5587 41.4794 58.903 41.3667L59.9797 41.0037C60.6996 40.7533 61.4132 40.4778 62.1206 40.1836C63.5299 39.605 64.9052 38.9466 66.2397 38.2117C68.8548 36.8164 71.208 34.9779 73.1945 32.778C74.9661 30.6747 76.2369 27.8076 77.2322 24.8654C77.7393 23.388 78.165 21.8668 78.5281 20.3206C78.8911 18.7744 79.2354 17.1906 79.4984 15.6694L82.0524 15.8259C82.0566 19.2113 81.6893 22.5868 80.9569 25.892C80.5844 27.5856 80.08 29.2475 79.4483 30.8625C78.7936 32.5671 77.9158 34.1774 76.8378 35.6514C74.6329 38.4785 71.8985 40.8492 68.7875 42.6313C67.2885 43.5174 65.7326 44.3037 64.1301 44.985C63.3288 45.3231 62.5212 45.611 61.6949 45.9178C61.288 46.0617 60.8749 46.1995 60.4429 46.3247C60.011 46.4499 59.6291 46.5688 59.1158 46.694L57.8826 41.6797Z" fill="#7F3E3B"/>
<path id="Vector_3" d="M82.0399 16.6835L83.1041 12.8587L78.8786 13.1842C78.8786 13.1842 78.5781 15.6882 80.0367 17.1969L82.0399 16.6835Z" fill="#7F3E3B"/>
<path id="Vector_4" d="M83.7364 8.40784L79.8803 9.4157L78.8787 13.1842L83.1042 12.8587L83.7364 8.40784Z" fill="#7F3E3B"/>
<path id="Vector_5" d="M53.1 42.6563C55.0468 40.8847 59.986 39.5263 59.986 39.5263L65.4009 47.6643C65.4009 47.6643 59.2223 51.7896 56.5993 50.8318C53.87 49.8803 51.2846 44.3027 53.1 42.6563Z" fill="#661010"/>
<path id="Vector_6" d="M35.2653 158.41L38.6394 162.116L48.3236 155.217L44.9495 151.511L35.2653 158.41Z" fill="#7F3E3B"/>
<path id="Vector_7" d="M16.2223 173.052L20.7483 175.299L27.4026 165.54L22.8767 163.293L16.2223 173.052Z" fill="#7F3E3B"/>
<path id="Vector_8" d="M21.4682 174.742L17.9751 170.266C17.9163 170.188 17.8311 170.134 17.7354 170.115C17.6397 170.095 17.5402 170.111 17.4555 170.16L13.518 172.414C13.4205 172.473 13.3368 172.553 13.2724 172.647C13.2079 172.741 13.1642 172.848 13.1441 172.96C13.124 173.073 13.1279 173.188 13.1557 173.299C13.1835 173.41 13.2344 173.513 13.3051 173.603C14.5571 175.143 15.2269 175.825 16.7669 177.797C17.7059 179.005 19.6215 181.822 20.9235 183.494C22.2256 185.165 23.9534 183.97 23.559 183.156C21.7937 179.506 21.681 177.34 21.7436 175.6C21.7562 175.29 21.6586 174.987 21.4682 174.742Z" fill="#263238"/>
<path id="Vector_9" d="M39.6472 162.185L37.3435 156.651C37.3029 156.552 37.2303 156.469 37.1373 156.416C37.0444 156.362 36.9363 156.342 36.8302 156.357L31.9474 156.983C31.8312 156.995 31.7196 157.035 31.6217 157.099C31.5239 157.163 31.4426 157.249 31.3845 157.35C31.3265 157.452 31.2933 157.565 31.2878 157.682C31.2823 157.799 31.3045 157.915 31.3527 158.022C32.1916 159.944 32.6986 160.839 33.7127 163.274C34.3387 164.77 35.7911 168.701 36.6487 170.786C37.5063 172.871 39.7098 172.376 39.5471 171.462C38.8146 167.368 39.065 164.726 39.6723 163.117C39.7298 162.968 39.7572 162.809 39.7529 162.649C39.7486 162.489 39.7127 162.331 39.6472 162.185Z" fill="#263238"/>
<path id="Vector_10" opacity="0.2" d="M48.3173 155.217L43.3281 158.773L39.5533 155.355L44.9432 151.511L48.3173 155.217Z" fill="black"/>
<path id="Vector_11" opacity="0.2" d="M22.8767 163.293L27.4027 165.54L23.9659 170.573L19.4399 168.32L22.8767 163.293Z" fill="black"/>
<path id="Vector_12" d="M59.9171 43.2886C59.9171 43.2886 60.0673 43.0632 57.3254 72.9735L36.8552 74.407C36.6174 66.0562 37.2434 60.1593 33.3434 43.0006C36.2194 42.4214 39.1339 42.0532 42.0636 41.8988C45.1657 41.6919 48.2787 41.7086 51.3784 41.9489C55.3786 42.3308 59.9171 43.2886 59.9171 43.2886Z" fill="#661010"/>
<path id="Vector_13" d="M34.8833 47.9585C33.3621 47.2574 32.0288 46.5062 30.6453 45.7112C29.2618 44.9161 27.9535 44.0648 26.6514 43.1633C24.0012 41.3641 21.5371 39.3047 19.2959 37.016L18.4696 36.1208L18.2568 35.8955C18.1347 35.7553 18.0198 35.609 17.9125 35.4573C17.7189 35.1812 17.5512 34.8878 17.4117 34.5809C16.9972 33.6026 16.7843 32.5509 16.7857 31.4884C16.7996 29.7973 17.0267 28.1147 17.4617 26.4804C18.2565 23.4219 19.3597 20.4519 20.7545 17.6163L23.1458 18.5427C22.7765 19.9638 22.4259 21.4411 22.1129 22.8872C21.7999 24.3333 21.537 25.7918 21.3617 27.2191C21.1585 28.5612 21.1039 29.9216 21.199 31.2756C21.2302 31.7443 21.3491 32.2029 21.5495 32.6277C21.5495 32.6716 21.6121 32.7217 21.6309 32.7279L21.825 32.9095L22.5949 33.6419C24.7438 35.588 27.0467 37.357 29.4809 38.9316C30.7016 39.7391 31.9849 40.4778 33.2369 41.2227C34.4889 41.9677 35.8348 42.6751 37.0555 43.2948L34.8833 47.9585Z" fill="#7F3E3B"/>
<path id="Vector_14" d="M41.4 44.1462C39.0775 40.9097 34.514 40.9598 34.514 40.9598L29.0115 49.0978C29.0115 49.0978 35.1525 53.2795 37.7755 52.3468C40.5549 51.3577 42.8336 46.1368 41.4 44.1462Z" fill="#661010"/>
<path id="Vector_15" d="M51.3784 41.9489L42.0636 41.8988C40.6363 42.4748 39.81 46.1869 49.2626 49.3295C55.8168 45.6048 52.33 42.2932 51.3784 41.9489Z" fill="white"/>
<path id="Vector_16" d="M43.0402 31.4133C43.6098 34.4119 44.167 39.9081 42.0636 41.8988C42.0636 41.8988 42.8774 44.9474 49.2626 49.3294C53.7385 44.841 51.3785 41.9489 51.3785 41.9489C48.0419 41.1288 48.1421 38.6499 48.7368 36.3149L43.0402 31.4133Z" fill="#7F3E3B"/>
<path id="Vector_17" d="M62.3459 61.1859H62.2458C61.9156 61.1587 61.6097 61.0019 61.395 60.7496C61.1802 60.4973 61.0742 60.1702 61.1002 59.84C61.3256 57.048 59.2222 54.9384 56.8058 52.4907C54.0327 49.6925 50.8839 46.5187 50.7587 41.5796C50.7504 41.2475 50.8743 40.9258 51.1033 40.6851C51.3322 40.4444 51.6473 40.3046 51.9794 40.2963C52.3114 40.288 52.6332 40.4119 52.8738 40.6408C53.1145 40.8698 53.2544 41.1849 53.2627 41.517C53.3629 45.4608 56.0171 48.14 58.5837 50.7317C61.1503 53.3233 63.911 56.1028 63.5917 60.0403C63.5651 60.3525 63.4223 60.6434 63.1917 60.8555C62.9611 61.0675 62.6593 61.1855 62.3459 61.1859Z" fill="#263238"/>
<path id="Vector_18" d="M44.048 67.521C43.9467 67.5207 43.8458 67.5081 43.7475 67.4834C43.4255 67.4035 43.1485 67.1991 42.9771 66.9151C42.8057 66.631 42.7541 66.2906 42.8336 65.9685C44.0417 61.0607 42.458 57.2045 40.7803 53.148C39.2779 49.5047 37.7254 45.7362 38.4766 41.3292C38.5414 41.01 38.7281 40.7287 38.9969 40.545C39.2657 40.3612 39.5956 40.2893 39.9164 40.3447C40.2373 40.4001 40.524 40.5783 40.7157 40.8416C40.9074 41.1049 40.9889 41.4324 40.943 41.7548C40.317 45.4482 41.6629 48.7285 43.0902 52.1965C44.7679 56.2593 46.6647 60.8666 45.2624 66.5945C45.1906 66.8613 45.0325 67.0968 44.8129 67.2644C44.5932 67.432 44.3243 67.5222 44.048 67.521Z" fill="#263238"/>
<path id="Vector_19" opacity="0.2" d="M47.5599 35.282L45.0559 35.5762C45.1772 36.2504 45.4189 36.8971 45.7695 37.4855C46.2641 38.2305 47.3658 38.556 48.4551 38.5873C48.4539 37.8128 48.5592 37.0419 48.7681 36.2961L47.5599 35.282Z" fill="black"/>
<path id="Vector_20" d="M37.5 28.396C39.3342 33.066 40.004 35.0817 43.2029 36.7469C48.0106 39.2509 53.3441 35.9894 52.9434 30.8687C52.5866 26.2551 49.6507 19.3941 44.3735 19.006C43.2113 18.9154 42.0453 19.1233 40.986 19.6098C39.9267 20.0963 39.0093 20.8455 38.3207 21.7861C37.6322 22.7267 37.1954 23.8276 37.0518 24.9844C36.9081 26.1412 37.0624 27.3156 37.5 28.396Z" fill="#7F3E3B"/>
<path id="Vector_21" d="M42.5268 18.3299C46.0887 20.5209 43.0401 33.4102 37.0117 32.7279C30.9834 32.0456 37.2621 15.0935 42.5268 18.3299Z" fill="#263238"/>
<path id="Vector_22" d="M42.3954 18.38C39.7099 20.1641 41.544 23.2691 50.596 21.4286C50.596 21.4224 46.8525 15.4128 42.3954 18.38Z" fill="#263238"/>
<path id="Vector_23" d="M38.1511 32.9345C38.547 33.8192 39.2758 34.512 40.1794 34.8626C41.3875 35.3133 42.0949 34.2366 41.857 33.066C41.6379 31.9955 40.749 30.4618 39.497 30.5244C39.2234 30.5428 38.9587 30.6293 38.727 30.776C38.4953 30.9227 38.304 31.1249 38.1703 31.3643C38.0365 31.6038 37.9648 31.8728 37.9614 32.147C37.9581 32.4212 38.0233 32.6919 38.1511 32.9345Z" fill="#7F3E3B"/>
<path id="Vector_24" d="M57.338 72.9734C57.338 72.9734 68.293 108.737 69.1756 124.124C70.0896 140.131 46.3204 159.124 46.3204 159.124L40.4047 152.632C40.4047 152.632 59.7168 136.231 57.0688 124.349C53.4067 107.973 42.314 74.0251 42.314 74.0251L57.338 72.9734Z" fill="#263238"/>
<path id="Vector_25" opacity="0.2" d="M50.5083 84.6797C49.5067 81.5497 47.2782 83.653 46.502 86.9708C48.0482 91.9788 49.8385 97.8382 51.5413 103.704C52.1986 98.508 52.4677 90.8145 50.5083 84.6797Z" fill="black"/>
<path id="Vector_26" d="M38.8021 152.319L46.3079 160.063L49.513 158.291L41.5816 149.658L38.8021 152.319Z" fill="#661010"/>
<path id="Vector_27" d="M51.9231 73.3553C51.9231 73.3553 48.7931 108.411 45.6631 127.936C43.1278 143.711 25.9065 169.478 25.9065 169.478L19.5964 166.542C19.5964 166.542 31.1712 138.954 32.9741 128.231C38.7583 93.9069 30.9458 84.0036 36.8615 74.3945L51.9231 73.3553Z" fill="#263238"/>
<path id="Vector_28" d="M19.152 166.611L26.2696 170.104L28.6046 167.205L20.2788 163.28L19.152 166.611Z" fill="#661010"/>
<path id="Vector_29" d="M36.4671 73.2301L35.6721 75.1081C35.6095 75.2521 35.7848 75.3898 36.0226 75.371L57.4944 73.8686C57.676 73.8686 57.8262 73.756 57.8262 73.637L57.8826 71.759C57.8826 71.6338 57.7198 71.5399 57.5195 71.5525L36.7864 73.0048C36.717 73.0072 36.6499 73.0298 36.5931 73.0699C36.5364 73.1099 36.4926 73.1656 36.4671 73.2301Z" fill="white"/>
<path id="Vector_30" d="M39.4094 75.346L38.8585 75.3836C38.7458 75.3836 38.6582 75.3398 38.6582 75.2709L38.7521 72.8733C38.7521 72.8045 38.8523 72.7356 38.9587 72.7293L39.5158 72.6918C39.6285 72.6918 39.7161 72.7356 39.7099 72.8045L39.616 75.202C39.616 75.2834 39.5221 75.346 39.4094 75.346Z" fill="#263238"/>
<path id="Vector_31" d="M55.9483 74.1942L55.3912 74.2317C55.2785 74.2317 55.1908 74.1879 55.1971 74.119L55.291 71.7215C55.291 71.6526 55.3849 71.59 55.4976 71.5775L56.0485 71.5399C56.1611 71.5399 56.2488 71.5837 56.2488 71.6526L56.1549 74.0564C56.1486 74.1253 56.086 74.1879 55.9483 74.1942Z" fill="#263238"/>
<path id="Vector_32" d="M47.6788 74.7763L47.1217 74.8139C47.0153 74.8139 46.9276 74.7701 46.9276 74.7012L47.0215 72.2974C47.0215 72.2285 47.1154 72.1659 47.2281 72.1597L47.7852 72.1221C47.8917 72.1221 47.9793 72.1659 47.9793 72.2348L47.8854 74.6324C47.8854 74.72 47.7915 74.7638 47.6788 74.7763Z" fill="#263238"/>
<path id="Vector_33" d="M45.0433 26.6432C44.7428 26.7434 44.6176 27.1941 44.7679 27.6573L45.8634 27.3068C45.7131 26.8435 45.3438 26.518 45.0433 26.6432Z" fill="#263238"/>
<path id="Vector_34" d="M49.826 25.1283C49.5193 25.2284 49.3941 25.6854 49.5443 26.1487L50.6461 25.7918C50.452 25.3286 50.0952 25.0344 49.826 25.1283Z" fill="#263238"/>
<path id="Vector_35" d="M49.6694 25.1971L50.6773 24.5211C50.6773 24.5211 50.3893 25.5727 49.6694 25.1971Z" fill="#263238"/>
<path id="Vector_36" d="M48.574 27.0188C49.2033 27.7919 49.9364 28.4744 50.7525 29.047C50.6012 29.2524 50.4068 29.4222 50.183 29.5444C49.9591 29.6666 49.7112 29.7383 49.4566 29.7544L48.574 27.0188Z" fill="#630F0F"/>
<path id="Vector_37" d="M48.6491 31.7013C48.6674 31.6854 48.6807 31.6645 48.6874 31.6411C48.6941 31.6178 48.6938 31.593 48.6867 31.5698C48.6767 31.54 48.6552 31.5153 48.6271 31.5012C48.5989 31.4871 48.5663 31.4848 48.5364 31.4947C48.0576 31.6605 47.5465 31.7118 47.0442 31.6444C46.542 31.577 46.0625 31.3928 45.6443 31.1066C45.6332 31.0954 45.6201 31.0866 45.6056 31.0805C45.5911 31.0745 45.5755 31.0714 45.5598 31.0714C45.5441 31.0714 45.5285 31.0745 45.514 31.0805C45.4995 31.0866 45.4863 31.0954 45.4753 31.1066C45.4633 31.1172 45.4537 31.1302 45.4471 31.1447C45.4405 31.1593 45.4371 31.1751 45.4371 31.1911C45.4371 31.2071 45.4405 31.2229 45.4471 31.2375C45.4537 31.252 45.4633 31.265 45.4753 31.2756C45.9227 31.5962 46.4412 31.8035 46.9864 31.8798C47.5315 31.9561 48.087 31.8992 48.6053 31.7138L48.6491 31.7013Z" fill="#263238"/>
<path id="Vector_38" d="M43.4595 26.3615C43.4912 26.3351 43.515 26.3004 43.5284 26.2614C43.6144 25.97 43.7699 25.7039 43.9814 25.4858C44.193 25.2677 44.4542 25.1043 44.7428 25.0094C44.7732 25.002 44.8019 24.9886 44.8272 24.9702C44.8524 24.9517 44.8738 24.9284 44.8901 24.9017C44.9064 24.8749 44.9172 24.8453 44.922 24.8143C44.9268 24.7834 44.9255 24.7518 44.9181 24.7214C44.9107 24.691 44.8974 24.6623 44.8789 24.6371C44.8604 24.6118 44.8372 24.5904 44.8104 24.5741C44.7837 24.5578 44.754 24.547 44.7231 24.5422C44.6921 24.5374 44.6605 24.5387 44.6301 24.5461C44.2673 24.6604 43.9371 24.8598 43.667 25.1277C43.3969 25.3956 43.1949 25.7242 43.0777 26.0861C43.0578 26.1459 43.0625 26.2111 43.0907 26.2674C43.1188 26.3237 43.1682 26.3666 43.2279 26.3866C43.2651 26.4039 43.3064 26.4107 43.3472 26.4063C43.388 26.4019 43.4269 26.3864 43.4595 26.3615Z" fill="#263238"/>
<path id="Vector_39" d="M50.959 23.2691C50.9724 23.262 50.9833 23.2511 50.9903 23.2378C51.0104 23.2133 51.0253 23.185 51.0343 23.1546C51.0433 23.1242 51.0461 23.0923 51.0426 23.0609C51.0391 23.0294 51.0294 22.9989 51.014 22.9712C50.9985 22.9436 50.9777 22.9193 50.9528 22.8997C50.6599 22.6575 50.3134 22.4885 49.9422 22.4068C49.571 22.3252 49.1856 22.3332 48.8181 22.4302C48.7878 22.4401 48.7598 22.4559 48.7357 22.4768C48.7117 22.4977 48.6921 22.5232 48.6781 22.5518C48.664 22.5804 48.6559 22.6116 48.6542 22.6434C48.6524 22.6752 48.6571 22.707 48.6678 22.737C48.6892 22.7957 48.7322 22.844 48.7881 22.872C48.844 22.8999 48.9085 22.9054 48.9683 22.8872C49.2596 22.8124 49.5646 22.8085 49.8576 22.8761C50.1506 22.9436 50.4232 23.0806 50.6523 23.2753C50.6959 23.3107 50.7507 23.3294 50.8068 23.3283C50.8629 23.3271 50.9168 23.3062 50.959 23.2691Z" fill="#263238"/>
<path id="Vector_40" d="M25.8815 19.463C25.7295 19.4626 25.5804 19.4215 25.4496 19.344L6.40667 7.61281C6.23974 7.48984 6.12514 7.30861 6.0856 7.10509C6.04606 6.90156 6.08447 6.69061 6.19323 6.51408C6.30198 6.33756 6.47311 6.20837 6.67268 6.15215C6.87224 6.09593 7.08565 6.11677 7.27056 6.21056L26.3135 17.9418C26.467 18.0349 26.5857 18.1759 26.6514 18.343C26.7171 18.5101 26.7261 18.6942 26.677 18.867C26.628 19.0397 26.5236 19.1916 26.3799 19.2992C26.2362 19.4069 26.0611 19.4644 25.8815 19.463Z" fill="#661010"/>
<path id="Vector_41" d="M10.7198 8.90862C11.7902 8.8648 12.892 8.81472 13.036 7.85068C13.18 6.88664 12.1471 6.5173 11.158 6.15422L10.8888 6.05406C10.8888 5.96016 10.845 5.86626 10.8199 5.77862L11.039 5.53448C11.7402 4.75824 12.4726 3.95696 11.9029 3.19324C11.3333 2.42952 10.3567 2.88024 9.39891 3.3247L9.10469 3.46242C9.02331 3.40608 8.94194 3.36226 8.8543 3.31218C8.76666 3.2621 8.8543 3.11186 8.8543 3.02422C8.80422 1.96002 8.75414 0.85826 7.79636 0.71428C6.83858 0.5703 6.46297 1.6032 6.09989 2.59228C6.06859 2.67366 6.0373 2.76756 5.99974 2.86146L5.71803 2.93032L5.48016 2.71748C4.70392 2.0101 3.90263 1.28394 3.13891 1.84734C2.37519 2.41074 2.82591 3.39356 3.27037 4.35134L3.40809 4.64556C3.35352 4.72408 3.30336 4.80559 3.25786 4.8897H2.9699C1.9057 4.93978 0.797673 4.98986 0.653693 5.9539C0.509713 6.91794 1.54887 7.28728 2.53169 7.65036L2.80087 7.75052C2.80087 7.84442 2.84469 7.93832 2.86973 8.02596C2.79461 8.1136 2.71949 8.20124 2.65063 8.2701C1.94951 9.04634 1.22336 9.84136 1.78676 10.6113C2.35016 11.3813 3.33297 10.9181 4.29075 10.4799L4.59124 10.3422L4.83538 10.4924C4.83538 10.5926 4.83538 10.6927 4.83538 10.7804C4.88546 11.8446 4.93554 12.9463 5.89332 13.0903C6.8511 13.2343 7.23295 12.2014 7.59603 11.2123C7.59603 11.1372 7.65864 11.0433 7.68994 10.9431C7.78519 10.9261 7.87927 10.9031 7.97163 10.8743L8.21577 11.0934C8.98575 11.7945 9.78704 12.5269 10.557 11.9635C11.327 11.4001 10.8638 10.4173 10.4193 9.4595C10.3817 9.37812 10.3317 9.2717 10.2878 9.16528L10.4381 8.92114L10.7198 8.90862Z" fill="#661010"/>
<path id="Vector_42" d="M20.1974 19.6633L19.4149 14.6553L24.5231 17.1593C24.3306 18.0024 23.8953 18.7706 23.2711 19.3691C23.0142 19.6616 22.6798 19.8756 22.3066 19.9864C21.9333 20.0971 21.5364 20.1001 21.1615 19.9951L20.1974 19.6633Z" fill="#7F3E3B"/>
<path id="Vector_43" d="M22.282 12.2014L24.8987 14.4988L24.5231 17.128L19.4149 14.649L22.282 12.2014Z" fill="#7F3E3B"/>
<path id="Vector_44" d="M23.1083 177.14C23.1614 177.102 23.2116 177.06 23.2585 177.015C23.3122 176.966 23.3516 176.903 23.3726 176.834C23.3935 176.764 23.3952 176.691 23.3775 176.62C23.2272 175.994 21.4995 175.368 21.3054 175.324C21.284 175.315 21.2602 175.313 21.2375 175.319C21.2149 175.325 21.1948 175.338 21.1802 175.356C21.1673 175.375 21.1604 175.398 21.1604 175.421C21.1604 175.445 21.1673 175.468 21.1802 175.487C21.4619 176.113 22.0253 177.14 22.6576 177.246C22.8159 177.27 22.9772 177.232 23.1083 177.14ZM21.4995 175.65C22.1818 175.907 23.0645 176.345 23.1459 176.677C23.1517 176.708 23.149 176.74 23.138 176.77C23.1269 176.8 23.108 176.826 23.0833 176.846C23.0356 176.906 22.9731 176.954 22.9019 176.983C22.8306 177.013 22.753 177.024 22.6764 177.015C22.3321 176.952 21.9064 176.451 21.4995 175.65Z" fill="#661010"/>
<path id="Vector_45" d="M23.4276 175.468C23.4684 175.444 23.5045 175.412 23.534 175.375C23.595 175.301 23.6284 175.208 23.6284 175.112C23.6284 175.016 23.595 174.923 23.534 174.849C23.4874 174.77 23.4241 174.702 23.3483 174.65C23.2726 174.598 23.1864 174.563 23.0958 174.548C22.3759 174.417 21.2178 175.306 21.1739 175.343C21.1577 175.357 21.1452 175.374 21.1375 175.394C21.1299 175.414 21.1273 175.435 21.1301 175.456C21.1336 175.476 21.1417 175.495 21.1536 175.511C21.1655 175.527 21.1811 175.541 21.199 175.55C21.9272 175.794 22.7191 175.765 23.4276 175.468ZM21.5496 175.375C21.9782 175.025 22.506 174.819 23.0582 174.786C23.1158 174.793 23.1708 174.814 23.2188 174.847C23.2667 174.879 23.3061 174.923 23.3336 174.974C23.415 175.105 23.3775 175.174 23.3336 175.218C23.1083 175.487 22.0817 175.537 21.512 175.393L21.5496 175.375Z" fill="#661010"/>
<path id="Vector_46" d="M39.7599 165.021C39.8872 165.412 40.1347 165.754 40.4673 165.997C40.5609 166.052 40.6657 166.086 40.774 166.096C40.8822 166.106 40.9913 166.091 41.0933 166.053C41.1542 166.036 41.2093 166.003 41.2523 165.956C41.2954 165.91 41.3249 165.853 41.3375 165.791C41.4689 165.165 39.8288 163.618 39.497 163.287C39.4766 163.273 39.4526 163.266 39.4282 163.266C39.4037 163.266 39.3797 163.273 39.3593 163.287C39.3374 163.298 39.32 163.317 39.3098 163.34C39.2997 163.362 39.2972 163.388 39.303 163.412C39.3953 163.963 39.5486 164.503 39.7599 165.021ZM41.062 165.49C41.0975 165.562 41.1127 165.642 41.1058 165.722C41.1058 165.753 41.1058 165.784 41.0182 165.809C40.9451 165.837 40.8666 165.849 40.7885 165.842C40.7105 165.836 40.6349 165.812 40.5675 165.772C40.1856 165.546 39.835 164.795 39.6097 163.731C40.1798 164.241 40.6695 164.834 41.062 165.49Z" fill="#661010"/>
<path id="Vector_47" d="M39.3279 163.455C39.3261 163.468 39.3261 163.481 39.3279 163.493C39.8413 164.013 41.375 164.851 41.8695 164.563C41.9759 164.501 42.0886 164.363 42.001 164.063C41.6817 162.911 39.497 163.274 39.3905 163.293C39.3686 163.296 39.348 163.305 39.3314 163.319C39.3147 163.334 39.3026 163.353 39.2966 163.374C39.297 163.404 39.3081 163.433 39.3279 163.455ZM41.7693 164.05L41.8006 164.125C41.8006 164.25 41.8006 164.326 41.8006 164.357C41.5127 164.52 40.3546 163.981 39.7411 163.493C40.2544 163.437 41.4939 163.387 41.7693 164.05Z" fill="#661010"/>
<path id="Vector_48" d="M44.9182 26.7121L45.9261 26.0297C45.9261 26.0297 45.6381 27.0877 44.9182 26.7121Z" fill="#263238"/>
</g>
</svg>
