<svg width="24" height="25" viewBox="0 0 24 25" fill="none" xmlns="http://www.w3.org/2000/svg">
<g id="atomo/instagram" clip-path="url(#clip0_854_323)">
<path id="Vector" fill-rule="evenodd" clip-rule="evenodd" d="M12 19.0508C15.615 19.0508 18.5455 16.1203 18.5455 12.5054C18.5455 8.8904 15.615 5.9599 12 5.9599C8.38509 5.9599 5.45459 8.8904 5.45459 12.5054C5.45459 16.1203 8.38509 19.0508 12 19.0508ZM12 16.869C14.41 16.869 16.3637 14.9153 16.3637 12.5054C16.3637 10.0954 14.41 8.14172 12 8.14172C9.59007 8.14172 7.63641 10.0954 7.63641 12.5054C7.63641 14.9153 9.59007 16.869 12 16.869Z" fill="#F2F2F2"/>
<path id="Vector_2" d="M18.5455 4.86902C17.943 4.86902 17.4546 5.35744 17.4546 5.95993C17.4546 6.56241 17.943 7.05084 18.5455 7.05084C19.148 7.05084 19.6364 6.56241 19.6364 5.95993C19.6364 5.35744 19.148 4.86902 18.5455 4.86902Z" fill="#F2F2F2"/>
<path id="Vector_3" fill-rule="evenodd" clip-rule="evenodd" d="M0.713411 4.07925C0 5.4794 0 7.31231 0 10.9781V14.0326C0 17.6984 0 19.5314 0.713411 20.9314C1.34095 22.1631 2.34227 23.1644 3.57388 23.7919C4.97403 24.5054 6.80694 24.5054 10.4727 24.5054H13.5273C17.1931 24.5054 19.026 24.5054 20.4261 23.7919C21.6577 23.1644 22.6591 22.1631 23.2865 20.9314C24 19.5314 24 17.6984 24 14.0326V10.9781C24 7.31231 24 5.4794 23.2865 4.07925C22.6591 2.84764 21.6577 1.84632 20.4261 1.21878C19.026 0.505371 17.1931 0.505371 13.5273 0.505371H10.4727C6.80694 0.505371 4.97403 0.505371 3.57388 1.21878C2.34227 1.84632 1.34095 2.84764 0.713411 4.07925ZM13.5273 2.68719H10.4727C8.60383 2.68719 7.33336 2.68889 6.35136 2.76912C5.39481 2.84727 4.90564 2.98892 4.56441 3.16279C3.74333 3.58116 3.07579 4.24871 2.65742 5.06978C2.48355 5.41102 2.3419 5.90018 2.26375 6.85673C2.18352 7.83874 2.18182 9.1092 2.18182 10.9781V14.0326C2.18182 15.9016 2.18352 17.172 2.26375 18.154C2.3419 19.1106 2.48355 19.5998 2.65742 19.941C3.07579 20.762 3.74333 21.4296 4.56441 21.8479C4.90564 22.0218 5.39481 22.1635 6.35136 22.2416C7.33336 22.3218 8.60383 22.3236 10.4727 22.3236H13.5273C15.3962 22.3236 16.6666 22.3218 17.6486 22.2416C18.6052 22.1635 19.0944 22.0218 19.4356 21.8479C20.2567 21.4296 20.9242 20.762 21.3425 19.941C21.5164 19.5998 21.6581 19.1106 21.7363 18.154C21.8164 17.172 21.8182 15.9016 21.8182 14.0326V10.9781C21.8182 9.1092 21.8164 7.83874 21.7363 6.85673C21.6581 5.90018 21.5164 5.41102 21.3425 5.06978C20.9242 4.24871 20.2567 3.58116 19.4356 3.16279C19.0944 2.98892 18.6052 2.84727 17.6486 2.76912C16.6666 2.68889 15.3962 2.68719 13.5273 2.68719Z" fill="#F2F2F2"/>
</g>
<defs>
<clipPath id="clip0_854_323">
<rect width="24" height="24" fill="white" transform="translate(0 0.505371)"/>
</clipPath>
</defs>
</svg>
