<svg width="18" height="22" viewBox="0 0 18 22" fill="none" xmlns="http://www.w3.org/2000/svg">
<path d="M11.74 7.99997L11.394 17M6.606 17L6.26 7.99997M16.228 4.78997C16.57 4.84197 16.91 4.89697 17.25 4.95597M16.228 4.78997L15.16 18.673C15.1164 19.2382 14.8611 19.7661 14.445 20.1512C14.029 20.5363 13.4829 20.7501 12.916 20.75H5.084C4.5171 20.7501 3.97102 20.5363 3.55498 20.1512C3.13894 19.7661 2.88359 19.2382 2.84 18.673L1.772 4.78997M16.228 4.78997C15.0739 4.61549 13.9138 4.48307 12.75 4.39297M1.772 4.78997C1.43 4.84097 1.09 4.89597 0.75 4.95497M1.772 4.78997C2.92613 4.61549 4.08623 4.48307 5.25 4.39297M12.75 4.39297V3.47697C12.75 2.29697 11.84 1.31297 10.66 1.27597C9.55362 1.24061 8.44638 1.24061 7.34 1.27597C6.16 1.31297 5.25 2.29797 5.25 3.47697V4.39297M12.75 4.39297C10.2537 4.20005 7.74628 4.20005 5.25 4.39297" stroke="black" stroke-width="1.5" stroke-linecap="round" stroke-linejoin="round"/>
</svg>
